<svg width="32" height="32" viewBox="0 0 32 32" fill="none" xmlns="http://www.w3.org/2000/svg">
<g clip-path="url(#clip0_25_61)">
<path d="M0 16.0029C0.000901171 19.8131 1.36075 23.4979 3.83514 26.3952C6.30952 29.2925 9.73618 31.2122 13.4992 31.8093V20.6269H9.44V16.0029H13.504V12.483C13.4143 11.6591 13.507 10.8256 13.7757 10.0416C14.0444 9.25766 14.4824 8.54247 15.0586 7.94686C15.6348 7.35124 16.3352 6.8898 17.1098 6.59532C17.8845 6.30084 18.7144 6.18054 19.5408 6.24297C20.7408 6.26217 21.9408 6.36937 23.1248 6.56297V10.4974H21.1024C20.7587 10.4523 20.4093 10.4851 20.0798 10.5933C19.7506 10.7015 19.4498 10.8823 19.1997 11.1224C18.9496 11.3625 18.7566 11.6557 18.6352 11.9804C18.5136 12.3051 18.4666 12.6529 18.4976 12.9982V16.0029H22.9312L22.2224 20.6285H18.4976V31.8093C21.5178 31.332 24.3379 29.9994 26.6243 27.969C28.9106 25.9386 30.5672 23.2957 31.3981 20.3531C32.2288 17.4104 32.199 14.2914 31.3123 11.3651C30.4254 8.43884 28.7187 5.82798 26.3942 3.84159C24.0696 1.85521 21.2245 0.576514 18.1958 0.15689C15.167 -0.262735 12.0815 0.194287 9.3044 1.47385C6.52733 2.7534 4.17507 4.80191 2.52608 7.37684C0.87711 9.95178 0.000485392 12.9453 0 16.0029Z" fill="white"/>
</g>
<defs>
<clipPath id="clip0_25_61">
<rect width="32" height="32" fill="white"/>
</clipPath>
</defs>
</svg>
