<svg xmlns="http://www.w3.org/2000/svg" fill="none" viewBox="5.81 4.39 29.98 31.23">
<path d="M20.7971 14.793C18.0446 14.793 15.7983 17.1329 15.7983 20C15.7983 22.8672 18.0446 25.207 20.7971 25.207C23.5496 25.207 25.7958 22.8672 25.7958 20C25.7958 17.1329 23.5496 14.793 20.7971 14.793ZM35.7896 20C35.7896 17.8439 35.8083 15.7071 35.692 13.5547C35.5758 11.0547 35.0283 8.836 33.2733 7.00788C31.5145 5.17585 29.3883 4.60945 26.9883 4.48835C24.9182 4.36726 22.867 4.38678 20.8008 4.38678C18.7309 4.38678 16.6795 4.36726 14.6133 4.48835C12.2133 4.60945 10.0833 5.17976 8.32829 7.00788C6.56953 8.83991 6.02579 11.0547 5.90953 13.5547C5.79328 15.711 5.81203 17.8477 5.81203 20C5.81203 22.1524 5.79328 24.293 5.90953 26.4454C6.02579 28.9454 6.57328 31.164 8.32829 32.9922C10.087 34.8242 12.2133 35.3907 14.6133 35.5117C16.6833 35.6329 18.7345 35.6134 20.8008 35.6134C22.8709 35.6134 24.9221 35.6329 26.9883 35.5117C29.3883 35.3907 31.5184 34.8204 33.2733 32.9922C35.032 31.1602 35.5758 28.9454 35.692 26.4454C35.812 24.293 35.7896 22.1564 35.7896 20ZM20.7971 28.0117C16.5408 28.0117 13.1058 24.4337 13.1058 20C13.1058 15.5665 16.5408 11.9883 20.7971 11.9883C25.0533 11.9883 28.4883 15.5665 28.4883 20C28.4883 24.4337 25.0533 28.0117 20.7971 28.0117ZM28.8033 13.5313C27.8096 13.5313 27.007 12.6954 27.007 11.6602C27.007 10.6251 27.8096 9.78913 28.8033 9.78913C29.7971 9.78913 30.5995 10.6251 30.5995 11.6602C30.5998 11.906 30.5536 12.1495 30.4635 12.3766C30.3733 12.6038 30.2409 12.8102 30.0741 12.984C29.9072 13.1578 29.7091 13.2956 29.491 13.3895C29.2729 13.4834 29.0393 13.5316 28.8033 13.5313Z" fill="white"/>
</svg>